<mxfile host="app.diagrams.net" agent="Mozilla/5.0 (Windows NT 10.0; Win64; x64) AppleWebKit/537.36 (KHTML, like Gecko) Chrome/127.0.0.0 Safari/537.36" version="24.7.7">
  <diagram id="C5RBs43oDa-KdzZeNtuy" name="Page-1">
    <mxGraphModel dx="1867" dy="767" grid="1" gridSize="10" guides="1" tooltips="1" connect="1" arrows="1" fold="1" page="1" pageScale="1" pageWidth="827" pageHeight="1169" math="0" shadow="0">
      <root>
        <mxCell id="WIyWlLk6GJQsqaUBKTNV-0" />
        <mxCell id="WIyWlLk6GJQsqaUBKTNV-1" parent="WIyWlLk6GJQsqaUBKTNV-0" />
        <mxCell id="zkfFHV4jXpPFQw0GAbJ--0" value="PreparadorPizza" style="swimlane;fontStyle=0;align=center;verticalAlign=top;childLayout=stackLayout;horizontal=1;startSize=26;horizontalStack=0;resizeParent=1;resizeLast=0;collapsible=1;marginBottom=0;rounded=0;shadow=0;strokeWidth=1;" parent="WIyWlLk6GJQsqaUBKTNV-1" vertex="1">
          <mxGeometry x="120" y="97" width="120" height="112" as="geometry">
            <mxRectangle x="220" y="120" width="160" height="26" as="alternateBounds" />
          </mxGeometry>
        </mxCell>
        <mxCell id="zkfFHV4jXpPFQw0GAbJ--4" value="" style="line;html=1;strokeWidth=1;align=left;verticalAlign=middle;spacingTop=-1;spacingLeft=3;spacingRight=3;rotatable=0;labelPosition=right;points=[];portConstraint=eastwest;" parent="zkfFHV4jXpPFQw0GAbJ--0" vertex="1">
          <mxGeometry y="26" width="120" height="24" as="geometry" />
        </mxCell>
        <mxCell id="zkfFHV4jXpPFQw0GAbJ--17" value="&lt;&lt;Abstract&gt;&gt;&#xa;Pizza" style="swimlane;fontStyle=0;align=center;verticalAlign=top;childLayout=stackLayout;horizontal=1;startSize=40;horizontalStack=0;resizeParent=1;resizeLast=0;collapsible=1;marginBottom=0;rounded=0;shadow=0;strokeWidth=1;" parent="WIyWlLk6GJQsqaUBKTNV-1" vertex="1">
          <mxGeometry x="218" y="260" width="180" height="100" as="geometry">
            <mxRectangle x="550" y="140" width="160" height="26" as="alternateBounds" />
          </mxGeometry>
        </mxCell>
        <mxCell id="zkfFHV4jXpPFQw0GAbJ--23" value="" style="line;html=1;strokeWidth=1;align=left;verticalAlign=middle;spacingTop=-1;spacingLeft=3;spacingRight=3;rotatable=0;labelPosition=right;points=[];portConstraint=eastwest;" parent="zkfFHV4jXpPFQw0GAbJ--17" vertex="1">
          <mxGeometry y="40" width="180" height="8" as="geometry" />
        </mxCell>
        <mxCell id="zkfFHV4jXpPFQw0GAbJ--25" value="+crearAmasador(): Amasador &#xa;+crearHorneador(): Horneador&#xa;+crearMoldeador(): Moldeador" style="text;align=left;verticalAlign=top;spacingLeft=4;spacingRight=4;overflow=hidden;rotatable=0;points=[[0,0.5],[1,0.5]];portConstraint=eastwest;" parent="zkfFHV4jXpPFQw0GAbJ--17" vertex="1">
          <mxGeometry y="48" width="180" height="52" as="geometry" />
        </mxCell>
        <mxCell id="jKkmDSno7VyTAPfK5DCA-1" value="PizzaDelgada" style="swimlane;fontStyle=0;align=center;verticalAlign=top;childLayout=stackLayout;horizontal=1;startSize=30;horizontalStack=0;resizeParent=1;resizeLast=0;collapsible=1;marginBottom=0;rounded=0;shadow=0;strokeWidth=1;" parent="WIyWlLk6GJQsqaUBKTNV-1" vertex="1">
          <mxGeometry x="8" y="440" width="180" height="90" as="geometry">
            <mxRectangle x="550" y="140" width="160" height="26" as="alternateBounds" />
          </mxGeometry>
        </mxCell>
        <mxCell id="jKkmDSno7VyTAPfK5DCA-2" value="" style="line;html=1;strokeWidth=1;align=left;verticalAlign=middle;spacingTop=-1;spacingLeft=3;spacingRight=3;rotatable=0;labelPosition=right;points=[];portConstraint=eastwest;" parent="jKkmDSno7VyTAPfK5DCA-1" vertex="1">
          <mxGeometry y="30" width="180" height="8" as="geometry" />
        </mxCell>
        <mxCell id="jKkmDSno7VyTAPfK5DCA-3" value="+crearAmasador(): Amasador &#xa;+crearHorneador(): Horneador&#xa;+crearMoldeador(): Moldeador" style="text;align=left;verticalAlign=top;spacingLeft=4;spacingRight=4;overflow=hidden;rotatable=0;points=[[0,0.5],[1,0.5]];portConstraint=eastwest;" parent="jKkmDSno7VyTAPfK5DCA-1" vertex="1">
          <mxGeometry y="38" width="180" height="52" as="geometry" />
        </mxCell>
        <mxCell id="jKkmDSno7VyTAPfK5DCA-4" value="PizzaGruesa" style="swimlane;fontStyle=0;align=center;verticalAlign=top;childLayout=stackLayout;horizontal=1;startSize=30;horizontalStack=0;resizeParent=1;resizeLast=0;collapsible=1;marginBottom=0;rounded=0;shadow=0;strokeWidth=1;" parent="WIyWlLk6GJQsqaUBKTNV-1" vertex="1">
          <mxGeometry x="208" y="440" width="180" height="90" as="geometry">
            <mxRectangle x="550" y="140" width="160" height="26" as="alternateBounds" />
          </mxGeometry>
        </mxCell>
        <mxCell id="jKkmDSno7VyTAPfK5DCA-5" value="" style="line;html=1;strokeWidth=1;align=left;verticalAlign=middle;spacingTop=-1;spacingLeft=3;spacingRight=3;rotatable=0;labelPosition=right;points=[];portConstraint=eastwest;" parent="jKkmDSno7VyTAPfK5DCA-4" vertex="1">
          <mxGeometry y="30" width="180" height="8" as="geometry" />
        </mxCell>
        <mxCell id="jKkmDSno7VyTAPfK5DCA-6" value="+crearAmasador(): Amasador &#xa;+crearHorneador(): Horneador&#xa;+crearMoldeador(): Moldeador" style="text;align=left;verticalAlign=top;spacingLeft=4;spacingRight=4;overflow=hidden;rotatable=0;points=[[0,0.5],[1,0.5]];portConstraint=eastwest;" parent="jKkmDSno7VyTAPfK5DCA-4" vertex="1">
          <mxGeometry y="38" width="180" height="52" as="geometry" />
        </mxCell>
        <mxCell id="jKkmDSno7VyTAPfK5DCA-7" value="PizzaIntegral" style="swimlane;fontStyle=0;align=center;verticalAlign=top;childLayout=stackLayout;horizontal=1;startSize=30;horizontalStack=0;resizeParent=1;resizeLast=0;collapsible=1;marginBottom=0;rounded=0;shadow=0;strokeWidth=1;" parent="WIyWlLk6GJQsqaUBKTNV-1" vertex="1">
          <mxGeometry x="418" y="440" width="180" height="90" as="geometry">
            <mxRectangle x="550" y="140" width="160" height="26" as="alternateBounds" />
          </mxGeometry>
        </mxCell>
        <mxCell id="jKkmDSno7VyTAPfK5DCA-8" value="" style="line;html=1;strokeWidth=1;align=left;verticalAlign=middle;spacingTop=-1;spacingLeft=3;spacingRight=3;rotatable=0;labelPosition=right;points=[];portConstraint=eastwest;" parent="jKkmDSno7VyTAPfK5DCA-7" vertex="1">
          <mxGeometry y="30" width="180" height="8" as="geometry" />
        </mxCell>
        <mxCell id="jKkmDSno7VyTAPfK5DCA-9" value="+crearAmasador(): Amasador &#xa;+crearHorneador(): Horneador&#xa;+crearMoldeador(): Moldeador" style="text;align=left;verticalAlign=top;spacingLeft=4;spacingRight=4;overflow=hidden;rotatable=0;points=[[0,0.5],[1,0.5]];portConstraint=eastwest;" parent="jKkmDSno7VyTAPfK5DCA-7" vertex="1">
          <mxGeometry y="38" width="180" height="52" as="geometry" />
        </mxCell>
        <mxCell id="jKkmDSno7VyTAPfK5DCA-10" value="Extends" style="endArrow=block;endSize=16;endFill=0;html=1;rounded=0;exitX=0.5;exitY=0;exitDx=0;exitDy=0;entryX=0.178;entryY=1;entryDx=0;entryDy=0;entryPerimeter=0;" parent="WIyWlLk6GJQsqaUBKTNV-1" source="jKkmDSno7VyTAPfK5DCA-1" target="zkfFHV4jXpPFQw0GAbJ--25" edge="1">
          <mxGeometry x="-0.0065" width="160" relative="1" as="geometry">
            <mxPoint x="278" y="350" as="sourcePoint" />
            <mxPoint x="308" y="370" as="targetPoint" />
            <mxPoint as="offset" />
          </mxGeometry>
        </mxCell>
        <mxCell id="jKkmDSno7VyTAPfK5DCA-11" value="Extends" style="endArrow=block;endSize=16;endFill=0;html=1;rounded=0;exitX=0.5;exitY=0;exitDx=0;exitDy=0;" parent="WIyWlLk6GJQsqaUBKTNV-1" source="jKkmDSno7VyTAPfK5DCA-4" edge="1">
          <mxGeometry x="-0.0065" width="160" relative="1" as="geometry">
            <mxPoint x="178" y="430" as="sourcePoint" />
            <mxPoint x="298" y="360" as="targetPoint" />
            <mxPoint as="offset" />
          </mxGeometry>
        </mxCell>
        <mxCell id="jKkmDSno7VyTAPfK5DCA-12" value="Extends" style="endArrow=block;endSize=16;endFill=0;html=1;rounded=0;exitX=0.5;exitY=0;exitDx=0;exitDy=0;" parent="WIyWlLk6GJQsqaUBKTNV-1" source="jKkmDSno7VyTAPfK5DCA-7" edge="1">
          <mxGeometry x="-0.0065" width="160" relative="1" as="geometry">
            <mxPoint x="188" y="440" as="sourcePoint" />
            <mxPoint x="368" y="359" as="targetPoint" />
            <mxPoint as="offset" />
          </mxGeometry>
        </mxCell>
        <mxCell id="jKkmDSno7VyTAPfK5DCA-13" value="&lt;&lt;Interface&gt;&gt;&#xa;Amasador" style="swimlane;fontStyle=0;align=center;verticalAlign=top;childLayout=stackLayout;horizontal=1;startSize=40;horizontalStack=0;resizeParent=1;resizeLast=0;collapsible=1;marginBottom=0;rounded=0;shadow=0;strokeWidth=1;" parent="WIyWlLk6GJQsqaUBKTNV-1" vertex="1">
          <mxGeometry x="775" y="125" width="140" height="80" as="geometry">
            <mxRectangle x="550" y="140" width="160" height="26" as="alternateBounds" />
          </mxGeometry>
        </mxCell>
        <mxCell id="jKkmDSno7VyTAPfK5DCA-14" value="" style="line;html=1;strokeWidth=1;align=left;verticalAlign=middle;spacingTop=-1;spacingLeft=3;spacingRight=3;rotatable=0;labelPosition=right;points=[];portConstraint=eastwest;" parent="jKkmDSno7VyTAPfK5DCA-13" vertex="1">
          <mxGeometry y="40" width="140" height="8" as="geometry" />
        </mxCell>
        <mxCell id="jKkmDSno7VyTAPfK5DCA-15" value="+amasar(): void" style="text;align=left;verticalAlign=top;spacingLeft=4;spacingRight=4;overflow=hidden;rotatable=0;points=[[0,0.5],[1,0.5]];portConstraint=eastwest;" parent="jKkmDSno7VyTAPfK5DCA-13" vertex="1">
          <mxGeometry y="48" width="140" height="22" as="geometry" />
        </mxCell>
        <mxCell id="jKkmDSno7VyTAPfK5DCA-16" value="AmasadorPizzaDelgada" style="swimlane;fontStyle=0;align=center;verticalAlign=top;childLayout=stackLayout;horizontal=1;startSize=30;horizontalStack=0;resizeParent=1;resizeLast=0;collapsible=1;marginBottom=0;rounded=0;shadow=0;strokeWidth=1;" parent="WIyWlLk6GJQsqaUBKTNV-1" vertex="1">
          <mxGeometry x="610" y="247" width="150" height="70" as="geometry">
            <mxRectangle x="550" y="140" width="160" height="26" as="alternateBounds" />
          </mxGeometry>
        </mxCell>
        <mxCell id="jKkmDSno7VyTAPfK5DCA-17" value="" style="line;html=1;strokeWidth=1;align=left;verticalAlign=middle;spacingTop=-1;spacingLeft=3;spacingRight=3;rotatable=0;labelPosition=right;points=[];portConstraint=eastwest;" parent="jKkmDSno7VyTAPfK5DCA-16" vertex="1">
          <mxGeometry y="30" width="150" height="8" as="geometry" />
        </mxCell>
        <mxCell id="jKkmDSno7VyTAPfK5DCA-18" value="+amasar(): void" style="text;align=left;verticalAlign=top;spacingLeft=4;spacingRight=4;overflow=hidden;rotatable=0;points=[[0,0.5],[1,0.5]];portConstraint=eastwest;" parent="jKkmDSno7VyTAPfK5DCA-16" vertex="1">
          <mxGeometry y="38" width="150" height="22" as="geometry" />
        </mxCell>
        <mxCell id="jKkmDSno7VyTAPfK5DCA-25" value="AmasadorPizzaGrusa" style="swimlane;fontStyle=0;align=center;verticalAlign=top;childLayout=stackLayout;horizontal=1;startSize=30;horizontalStack=0;resizeParent=1;resizeLast=0;collapsible=1;marginBottom=0;rounded=0;shadow=0;strokeWidth=1;" parent="WIyWlLk6GJQsqaUBKTNV-1" vertex="1">
          <mxGeometry x="770" y="247" width="150" height="70" as="geometry">
            <mxRectangle x="550" y="140" width="160" height="26" as="alternateBounds" />
          </mxGeometry>
        </mxCell>
        <mxCell id="jKkmDSno7VyTAPfK5DCA-26" value="" style="line;html=1;strokeWidth=1;align=left;verticalAlign=middle;spacingTop=-1;spacingLeft=3;spacingRight=3;rotatable=0;labelPosition=right;points=[];portConstraint=eastwest;" parent="jKkmDSno7VyTAPfK5DCA-25" vertex="1">
          <mxGeometry y="30" width="150" height="8" as="geometry" />
        </mxCell>
        <mxCell id="jKkmDSno7VyTAPfK5DCA-27" value="+amasar(): void" style="text;align=left;verticalAlign=top;spacingLeft=4;spacingRight=4;overflow=hidden;rotatable=0;points=[[0,0.5],[1,0.5]];portConstraint=eastwest;" parent="jKkmDSno7VyTAPfK5DCA-25" vertex="1">
          <mxGeometry y="38" width="150" height="22" as="geometry" />
        </mxCell>
        <mxCell id="jKkmDSno7VyTAPfK5DCA-28" value="AmasadorPizzaIntegral" style="swimlane;fontStyle=0;align=center;verticalAlign=top;childLayout=stackLayout;horizontal=1;startSize=30;horizontalStack=0;resizeParent=1;resizeLast=0;collapsible=1;marginBottom=0;rounded=0;shadow=0;strokeWidth=1;" parent="WIyWlLk6GJQsqaUBKTNV-1" vertex="1">
          <mxGeometry x="930" y="247" width="150" height="70" as="geometry">
            <mxRectangle x="550" y="140" width="160" height="26" as="alternateBounds" />
          </mxGeometry>
        </mxCell>
        <mxCell id="jKkmDSno7VyTAPfK5DCA-29" value="" style="line;html=1;strokeWidth=1;align=left;verticalAlign=middle;spacingTop=-1;spacingLeft=3;spacingRight=3;rotatable=0;labelPosition=right;points=[];portConstraint=eastwest;" parent="jKkmDSno7VyTAPfK5DCA-28" vertex="1">
          <mxGeometry y="30" width="150" height="8" as="geometry" />
        </mxCell>
        <mxCell id="jKkmDSno7VyTAPfK5DCA-30" value="+amasar(): void" style="text;align=left;verticalAlign=top;spacingLeft=4;spacingRight=4;overflow=hidden;rotatable=0;points=[[0,0.5],[1,0.5]];portConstraint=eastwest;" parent="jKkmDSno7VyTAPfK5DCA-28" vertex="1">
          <mxGeometry y="38" width="150" height="22" as="geometry" />
        </mxCell>
        <mxCell id="jKkmDSno7VyTAPfK5DCA-32" value="" style="endArrow=open;endFill=1;endSize=12;html=1;rounded=0;entryX=0.5;entryY=0;entryDx=0;entryDy=0;exitX=0.732;exitY=1;exitDx=0;exitDy=0;exitPerimeter=0;" parent="WIyWlLk6GJQsqaUBKTNV-1" target="zkfFHV4jXpPFQw0GAbJ--17" edge="1">
          <mxGeometry width="160" relative="1" as="geometry">
            <mxPoint x="178.36" y="209" as="sourcePoint" />
            <mxPoint x="400" y="240" as="targetPoint" />
          </mxGeometry>
        </mxCell>
        <mxCell id="jKkmDSno7VyTAPfK5DCA-33" value="" style="endArrow=open;endFill=1;endSize=12;html=1;rounded=0;entryX=0;entryY=0.5;entryDx=0;entryDy=0;" parent="WIyWlLk6GJQsqaUBKTNV-1" edge="1">
          <mxGeometry width="160" relative="1" as="geometry">
            <mxPoint x="240" y="181" as="sourcePoint" />
            <mxPoint x="775" y="183" as="targetPoint" />
          </mxGeometry>
        </mxCell>
        <mxCell id="jKkmDSno7VyTAPfK5DCA-34" value="Use" style="endArrow=open;endSize=12;dashed=1;html=1;rounded=0;exitX=0.5;exitY=0;exitDx=0;exitDy=0;" parent="WIyWlLk6GJQsqaUBKTNV-1" source="jKkmDSno7VyTAPfK5DCA-16" edge="1">
          <mxGeometry width="160" relative="1" as="geometry">
            <mxPoint x="730" y="305" as="sourcePoint" />
            <mxPoint x="800" y="205" as="targetPoint" />
          </mxGeometry>
        </mxCell>
        <mxCell id="jKkmDSno7VyTAPfK5DCA-35" value="Use" style="endArrow=open;endSize=12;dashed=1;html=1;rounded=0;entryX=0.5;entryY=1;entryDx=0;entryDy=0;" parent="WIyWlLk6GJQsqaUBKTNV-1" source="jKkmDSno7VyTAPfK5DCA-25" target="jKkmDSno7VyTAPfK5DCA-13" edge="1">
          <mxGeometry width="160" relative="1" as="geometry">
            <mxPoint x="695" y="245" as="sourcePoint" />
            <mxPoint x="855" y="215" as="targetPoint" />
          </mxGeometry>
        </mxCell>
        <mxCell id="jKkmDSno7VyTAPfK5DCA-36" value="Use" style="endArrow=open;endSize=12;dashed=1;html=1;rounded=0;exitX=0.315;exitY=-0.033;exitDx=0;exitDy=0;exitPerimeter=0;" parent="WIyWlLk6GJQsqaUBKTNV-1" source="jKkmDSno7VyTAPfK5DCA-28" edge="1">
          <mxGeometry width="160" relative="1" as="geometry">
            <mxPoint x="705" y="255" as="sourcePoint" />
            <mxPoint x="890" y="205" as="targetPoint" />
          </mxGeometry>
        </mxCell>
        <mxCell id="jKkmDSno7VyTAPfK5DCA-38" value="" style="endArrow=open;endFill=1;endSize=12;html=1;rounded=0;exitX=0.39;exitY=0.956;exitDx=0;exitDy=0;exitPerimeter=0;" parent="WIyWlLk6GJQsqaUBKTNV-1" edge="1">
          <mxGeometry width="160" relative="1" as="geometry">
            <mxPoint x="78.20000000000005" y="530.712" as="sourcePoint" />
            <mxPoint x="680" y="315" as="targetPoint" />
            <Array as="points">
              <mxPoint x="78" y="573" />
              <mxPoint x="680" y="573" />
            </Array>
          </mxGeometry>
        </mxCell>
        <mxCell id="jKkmDSno7VyTAPfK5DCA-39" value="" style="endArrow=open;endFill=1;endSize=12;html=1;rounded=0;exitX=0.511;exitY=0.993;exitDx=0;exitDy=0;exitPerimeter=0;entryX=0.5;entryY=1;entryDx=0;entryDy=0;" parent="WIyWlLk6GJQsqaUBKTNV-1" source="jKkmDSno7VyTAPfK5DCA-6" target="jKkmDSno7VyTAPfK5DCA-25" edge="1">
          <mxGeometry width="160" relative="1" as="geometry">
            <mxPoint x="88" y="538" as="sourcePoint" />
            <mxPoint x="690" y="322" as="targetPoint" />
            <Array as="points">
              <mxPoint x="300" y="560" />
              <mxPoint x="845" y="560" />
              <mxPoint x="845" y="440" />
            </Array>
          </mxGeometry>
        </mxCell>
        <mxCell id="jKkmDSno7VyTAPfK5DCA-40" value="" style="endArrow=open;endFill=1;endSize=12;html=1;rounded=0;" parent="WIyWlLk6GJQsqaUBKTNV-1" edge="1">
          <mxGeometry width="160" relative="1" as="geometry">
            <mxPoint x="509" y="529" as="sourcePoint" />
            <mxPoint x="1020" y="317" as="targetPoint" />
            <Array as="points">
              <mxPoint x="509" y="547" />
              <mxPoint x="1020" y="547" />
              <mxPoint x="1020" y="437" />
            </Array>
          </mxGeometry>
        </mxCell>
        <mxCell id="jKkmDSno7VyTAPfK5DCA-41" value="&lt;&lt;Interface&gt;&gt;&#xa;Horneador" style="swimlane;fontStyle=0;align=center;verticalAlign=top;childLayout=stackLayout;horizontal=1;startSize=40;horizontalStack=0;resizeParent=1;resizeLast=0;collapsible=1;marginBottom=0;rounded=0;shadow=0;strokeWidth=1;" parent="WIyWlLk6GJQsqaUBKTNV-1" vertex="1">
          <mxGeometry x="1315" y="125" width="140" height="80" as="geometry">
            <mxRectangle x="550" y="140" width="160" height="26" as="alternateBounds" />
          </mxGeometry>
        </mxCell>
        <mxCell id="jKkmDSno7VyTAPfK5DCA-42" value="" style="line;html=1;strokeWidth=1;align=left;verticalAlign=middle;spacingTop=-1;spacingLeft=3;spacingRight=3;rotatable=0;labelPosition=right;points=[];portConstraint=eastwest;" parent="jKkmDSno7VyTAPfK5DCA-41" vertex="1">
          <mxGeometry y="40" width="140" height="8" as="geometry" />
        </mxCell>
        <mxCell id="jKkmDSno7VyTAPfK5DCA-43" value="+hornear(): void" style="text;align=left;verticalAlign=top;spacingLeft=4;spacingRight=4;overflow=hidden;rotatable=0;points=[[0,0.5],[1,0.5]];portConstraint=eastwest;" parent="jKkmDSno7VyTAPfK5DCA-41" vertex="1">
          <mxGeometry y="48" width="140" height="22" as="geometry" />
        </mxCell>
        <mxCell id="jKkmDSno7VyTAPfK5DCA-44" value="HorneadorPizzaDelgada" style="swimlane;fontStyle=0;align=center;verticalAlign=top;childLayout=stackLayout;horizontal=1;startSize=30;horizontalStack=0;resizeParent=1;resizeLast=0;collapsible=1;marginBottom=0;rounded=0;shadow=0;strokeWidth=1;" parent="WIyWlLk6GJQsqaUBKTNV-1" vertex="1">
          <mxGeometry x="1150" y="247" width="150" height="70" as="geometry">
            <mxRectangle x="550" y="140" width="160" height="26" as="alternateBounds" />
          </mxGeometry>
        </mxCell>
        <mxCell id="jKkmDSno7VyTAPfK5DCA-45" value="" style="line;html=1;strokeWidth=1;align=left;verticalAlign=middle;spacingTop=-1;spacingLeft=3;spacingRight=3;rotatable=0;labelPosition=right;points=[];portConstraint=eastwest;" parent="jKkmDSno7VyTAPfK5DCA-44" vertex="1">
          <mxGeometry y="30" width="150" height="8" as="geometry" />
        </mxCell>
        <mxCell id="jKkmDSno7VyTAPfK5DCA-46" value="+hornear(): void" style="text;align=left;verticalAlign=top;spacingLeft=4;spacingRight=4;overflow=hidden;rotatable=0;points=[[0,0.5],[1,0.5]];portConstraint=eastwest;" parent="jKkmDSno7VyTAPfK5DCA-44" vertex="1">
          <mxGeometry y="38" width="150" height="22" as="geometry" />
        </mxCell>
        <mxCell id="jKkmDSno7VyTAPfK5DCA-47" value="HorneadorPizzaGrusa" style="swimlane;fontStyle=0;align=center;verticalAlign=top;childLayout=stackLayout;horizontal=1;startSize=30;horizontalStack=0;resizeParent=1;resizeLast=0;collapsible=1;marginBottom=0;rounded=0;shadow=0;strokeWidth=1;" parent="WIyWlLk6GJQsqaUBKTNV-1" vertex="1">
          <mxGeometry x="1310" y="247" width="150" height="70" as="geometry">
            <mxRectangle x="550" y="140" width="160" height="26" as="alternateBounds" />
          </mxGeometry>
        </mxCell>
        <mxCell id="jKkmDSno7VyTAPfK5DCA-48" value="" style="line;html=1;strokeWidth=1;align=left;verticalAlign=middle;spacingTop=-1;spacingLeft=3;spacingRight=3;rotatable=0;labelPosition=right;points=[];portConstraint=eastwest;" parent="jKkmDSno7VyTAPfK5DCA-47" vertex="1">
          <mxGeometry y="30" width="150" height="8" as="geometry" />
        </mxCell>
        <mxCell id="jKkmDSno7VyTAPfK5DCA-49" value="+hornear(): void" style="text;align=left;verticalAlign=top;spacingLeft=4;spacingRight=4;overflow=hidden;rotatable=0;points=[[0,0.5],[1,0.5]];portConstraint=eastwest;" parent="jKkmDSno7VyTAPfK5DCA-47" vertex="1">
          <mxGeometry y="38" width="150" height="22" as="geometry" />
        </mxCell>
        <mxCell id="jKkmDSno7VyTAPfK5DCA-50" value="HorneadorPizzaIntegral" style="swimlane;fontStyle=0;align=center;verticalAlign=top;childLayout=stackLayout;horizontal=1;startSize=30;horizontalStack=0;resizeParent=1;resizeLast=0;collapsible=1;marginBottom=0;rounded=0;shadow=0;strokeWidth=1;" parent="WIyWlLk6GJQsqaUBKTNV-1" vertex="1">
          <mxGeometry x="1470" y="247" width="150" height="70" as="geometry">
            <mxRectangle x="550" y="140" width="160" height="26" as="alternateBounds" />
          </mxGeometry>
        </mxCell>
        <mxCell id="jKkmDSno7VyTAPfK5DCA-51" value="" style="line;html=1;strokeWidth=1;align=left;verticalAlign=middle;spacingTop=-1;spacingLeft=3;spacingRight=3;rotatable=0;labelPosition=right;points=[];portConstraint=eastwest;" parent="jKkmDSno7VyTAPfK5DCA-50" vertex="1">
          <mxGeometry y="30" width="150" height="8" as="geometry" />
        </mxCell>
        <mxCell id="jKkmDSno7VyTAPfK5DCA-52" value="+hornear(): void" style="text;align=left;verticalAlign=top;spacingLeft=4;spacingRight=4;overflow=hidden;rotatable=0;points=[[0,0.5],[1,0.5]];portConstraint=eastwest;" parent="jKkmDSno7VyTAPfK5DCA-50" vertex="1">
          <mxGeometry y="38" width="150" height="22" as="geometry" />
        </mxCell>
        <mxCell id="jKkmDSno7VyTAPfK5DCA-53" value="Use" style="endArrow=open;endSize=12;dashed=1;html=1;rounded=0;exitX=0.5;exitY=0;exitDx=0;exitDy=0;" parent="WIyWlLk6GJQsqaUBKTNV-1" source="jKkmDSno7VyTAPfK5DCA-44" edge="1">
          <mxGeometry width="160" relative="1" as="geometry">
            <mxPoint x="1270" y="305" as="sourcePoint" />
            <mxPoint x="1340" y="205" as="targetPoint" />
          </mxGeometry>
        </mxCell>
        <mxCell id="jKkmDSno7VyTAPfK5DCA-54" value="Use" style="endArrow=open;endSize=12;dashed=1;html=1;rounded=0;entryX=0.5;entryY=1;entryDx=0;entryDy=0;" parent="WIyWlLk6GJQsqaUBKTNV-1" source="jKkmDSno7VyTAPfK5DCA-47" target="jKkmDSno7VyTAPfK5DCA-41" edge="1">
          <mxGeometry width="160" relative="1" as="geometry">
            <mxPoint x="1235" y="245" as="sourcePoint" />
            <mxPoint x="1395" y="215" as="targetPoint" />
          </mxGeometry>
        </mxCell>
        <mxCell id="jKkmDSno7VyTAPfK5DCA-55" value="Use" style="endArrow=open;endSize=12;dashed=1;html=1;rounded=0;exitX=0.315;exitY=-0.033;exitDx=0;exitDy=0;exitPerimeter=0;" parent="WIyWlLk6GJQsqaUBKTNV-1" source="jKkmDSno7VyTAPfK5DCA-50" edge="1">
          <mxGeometry width="160" relative="1" as="geometry">
            <mxPoint x="1245" y="255" as="sourcePoint" />
            <mxPoint x="1430" y="205" as="targetPoint" />
          </mxGeometry>
        </mxCell>
        <mxCell id="jKkmDSno7VyTAPfK5DCA-56" value="&lt;&lt;Interface&gt;&gt;&#xa;Moldeador" style="swimlane;fontStyle=0;align=center;verticalAlign=top;childLayout=stackLayout;horizontal=1;startSize=40;horizontalStack=0;resizeParent=1;resizeLast=0;collapsible=1;marginBottom=0;rounded=0;shadow=0;strokeWidth=1;" parent="WIyWlLk6GJQsqaUBKTNV-1" vertex="1">
          <mxGeometry x="1855" y="120" width="175" height="90" as="geometry">
            <mxRectangle x="550" y="140" width="160" height="26" as="alternateBounds" />
          </mxGeometry>
        </mxCell>
        <mxCell id="jKkmDSno7VyTAPfK5DCA-57" value="" style="line;html=1;strokeWidth=1;align=left;verticalAlign=middle;spacingTop=-1;spacingLeft=3;spacingRight=3;rotatable=0;labelPosition=right;points=[];portConstraint=eastwest;" parent="jKkmDSno7VyTAPfK5DCA-56" vertex="1">
          <mxGeometry y="40" width="175" height="10" as="geometry" />
        </mxCell>
        <mxCell id="jKkmDSno7VyTAPfK5DCA-58" value="+moldearPizzaMediana(): void&#xa;+moldearPizzaPequena(): void" style="text;align=left;verticalAlign=top;spacingLeft=4;spacingRight=4;overflow=hidden;rotatable=0;points=[[0,0.5],[1,0.5]];portConstraint=eastwest;" parent="jKkmDSno7VyTAPfK5DCA-56" vertex="1">
          <mxGeometry y="50" width="175" height="40" as="geometry" />
        </mxCell>
        <mxCell id="jKkmDSno7VyTAPfK5DCA-59" value="MoldeadorPizzaDelgada" style="swimlane;fontStyle=0;align=center;verticalAlign=top;childLayout=stackLayout;horizontal=1;startSize=30;horizontalStack=0;resizeParent=1;resizeLast=0;collapsible=1;marginBottom=0;rounded=0;shadow=0;strokeWidth=1;" parent="WIyWlLk6GJQsqaUBKTNV-1" vertex="1">
          <mxGeometry x="1660" y="242" width="180" height="80" as="geometry">
            <mxRectangle x="550" y="140" width="160" height="26" as="alternateBounds" />
          </mxGeometry>
        </mxCell>
        <mxCell id="jKkmDSno7VyTAPfK5DCA-60" value="" style="line;html=1;strokeWidth=1;align=left;verticalAlign=middle;spacingTop=-1;spacingLeft=3;spacingRight=3;rotatable=0;labelPosition=right;points=[];portConstraint=eastwest;" parent="jKkmDSno7VyTAPfK5DCA-59" vertex="1">
          <mxGeometry y="30" width="180" height="8" as="geometry" />
        </mxCell>
        <mxCell id="jKkmDSno7VyTAPfK5DCA-61" value="+moldearPizzaMediana(): void&#xa;+moldearPizzaPequena(): void" style="text;align=left;verticalAlign=top;spacingLeft=4;spacingRight=4;overflow=hidden;rotatable=0;points=[[0,0.5],[1,0.5]];portConstraint=eastwest;" parent="jKkmDSno7VyTAPfK5DCA-59" vertex="1">
          <mxGeometry y="38" width="180" height="42" as="geometry" />
        </mxCell>
        <mxCell id="jKkmDSno7VyTAPfK5DCA-68" value="Use" style="endArrow=open;endSize=12;dashed=1;html=1;rounded=0;exitX=0.72;exitY=0.012;exitDx=0;exitDy=0;entryX=0.07;entryY=1.005;entryDx=0;entryDy=0;entryPerimeter=0;exitPerimeter=0;" parent="WIyWlLk6GJQsqaUBKTNV-1" source="jKkmDSno7VyTAPfK5DCA-59" target="jKkmDSno7VyTAPfK5DCA-58" edge="1">
          <mxGeometry width="160" relative="1" as="geometry">
            <mxPoint x="1810" y="300" as="sourcePoint" />
            <mxPoint x="1880" y="200" as="targetPoint" />
          </mxGeometry>
        </mxCell>
        <mxCell id="jKkmDSno7VyTAPfK5DCA-69" value="Use" style="endArrow=open;endSize=12;dashed=1;html=1;rounded=0;entryX=0.493;entryY=0.972;entryDx=0;entryDy=0;entryPerimeter=0;exitX=0.5;exitY=0;exitDx=0;exitDy=0;" parent="WIyWlLk6GJQsqaUBKTNV-1" source="jKkmDSno7VyTAPfK5DCA-72" target="jKkmDSno7VyTAPfK5DCA-58" edge="1">
          <mxGeometry width="160" relative="1" as="geometry">
            <mxPoint x="1926.1600378787884" y="242" as="sourcePoint" />
            <mxPoint x="1935" y="210" as="targetPoint" />
            <Array as="points">
              <mxPoint x="1940" y="230" />
            </Array>
          </mxGeometry>
        </mxCell>
        <mxCell id="jKkmDSno7VyTAPfK5DCA-70" value="Use" style="endArrow=open;endSize=12;dashed=1;html=1;rounded=0;exitX=0.315;exitY=-0.033;exitDx=0;exitDy=0;exitPerimeter=0;" parent="WIyWlLk6GJQsqaUBKTNV-1" edge="1">
          <mxGeometry width="160" relative="1" as="geometry">
            <mxPoint x="2057.25" y="239.69000000000005" as="sourcePoint" />
            <mxPoint x="2000" y="210" as="targetPoint" />
          </mxGeometry>
        </mxCell>
        <mxCell id="jKkmDSno7VyTAPfK5DCA-72" value="MoldeadorPizzaGruesa" style="swimlane;fontStyle=0;align=center;verticalAlign=top;childLayout=stackLayout;horizontal=1;startSize=30;horizontalStack=0;resizeParent=1;resizeLast=0;collapsible=1;marginBottom=0;rounded=0;shadow=0;strokeWidth=1;" parent="WIyWlLk6GJQsqaUBKTNV-1" vertex="1">
          <mxGeometry x="1850" y="242" width="180" height="80" as="geometry">
            <mxRectangle x="550" y="140" width="160" height="26" as="alternateBounds" />
          </mxGeometry>
        </mxCell>
        <mxCell id="jKkmDSno7VyTAPfK5DCA-73" value="" style="line;html=1;strokeWidth=1;align=left;verticalAlign=middle;spacingTop=-1;spacingLeft=3;spacingRight=3;rotatable=0;labelPosition=right;points=[];portConstraint=eastwest;" parent="jKkmDSno7VyTAPfK5DCA-72" vertex="1">
          <mxGeometry y="30" width="180" height="8" as="geometry" />
        </mxCell>
        <mxCell id="jKkmDSno7VyTAPfK5DCA-74" value="+moldearPizzaMediana(): void&#xa;+moldearPizzaPequena(): void" style="text;align=left;verticalAlign=top;spacingLeft=4;spacingRight=4;overflow=hidden;rotatable=0;points=[[0,0.5],[1,0.5]];portConstraint=eastwest;" parent="jKkmDSno7VyTAPfK5DCA-72" vertex="1">
          <mxGeometry y="38" width="180" height="42" as="geometry" />
        </mxCell>
        <mxCell id="jKkmDSno7VyTAPfK5DCA-75" value="MoldeadorPizzaIntegral" style="swimlane;fontStyle=0;align=center;verticalAlign=top;childLayout=stackLayout;horizontal=1;startSize=30;horizontalStack=0;resizeParent=1;resizeLast=0;collapsible=1;marginBottom=0;rounded=0;shadow=0;strokeWidth=1;" parent="WIyWlLk6GJQsqaUBKTNV-1" vertex="1">
          <mxGeometry x="2040" y="242" width="180" height="80" as="geometry">
            <mxRectangle x="550" y="140" width="160" height="26" as="alternateBounds" />
          </mxGeometry>
        </mxCell>
        <mxCell id="jKkmDSno7VyTAPfK5DCA-76" value="" style="line;html=1;strokeWidth=1;align=left;verticalAlign=middle;spacingTop=-1;spacingLeft=3;spacingRight=3;rotatable=0;labelPosition=right;points=[];portConstraint=eastwest;" parent="jKkmDSno7VyTAPfK5DCA-75" vertex="1">
          <mxGeometry y="30" width="180" height="8" as="geometry" />
        </mxCell>
        <mxCell id="jKkmDSno7VyTAPfK5DCA-77" value="+moldearPizzaMediana(): void&#xa;+moldearPizzaPequena(): void" style="text;align=left;verticalAlign=top;spacingLeft=4;spacingRight=4;overflow=hidden;rotatable=0;points=[[0,0.5],[1,0.5]];portConstraint=eastwest;" parent="jKkmDSno7VyTAPfK5DCA-75" vertex="1">
          <mxGeometry y="38" width="180" height="42" as="geometry" />
        </mxCell>
        <mxCell id="jKkmDSno7VyTAPfK5DCA-79" value="" style="endArrow=open;endFill=1;endSize=12;html=1;rounded=0;entryX=0;entryY=0.5;entryDx=0;entryDy=0;" parent="WIyWlLk6GJQsqaUBKTNV-1" target="jKkmDSno7VyTAPfK5DCA-43" edge="1">
          <mxGeometry width="160" relative="1" as="geometry">
            <mxPoint x="240" y="161" as="sourcePoint" />
            <mxPoint x="1250" y="103" as="targetPoint" />
            <Array as="points">
              <mxPoint x="340" y="161" />
              <mxPoint x="340" y="101" />
              <mxPoint x="1200" y="101" />
              <mxPoint x="1200" y="184" />
            </Array>
          </mxGeometry>
        </mxCell>
        <mxCell id="jKkmDSno7VyTAPfK5DCA-80" value="" style="endArrow=open;endFill=1;endSize=12;html=1;rounded=0;entryX=0;entryY=0.5;entryDx=0;entryDy=0;" parent="WIyWlLk6GJQsqaUBKTNV-1" target="jKkmDSno7VyTAPfK5DCA-58" edge="1">
          <mxGeometry width="160" relative="1" as="geometry">
            <mxPoint x="241" y="138" as="sourcePoint" />
            <mxPoint x="1360" y="78" as="targetPoint" />
            <Array as="points">
              <mxPoint x="320" y="138" />
              <mxPoint x="320" y="78" />
              <mxPoint x="1201" y="78" />
              <mxPoint x="1760" y="78" />
              <mxPoint x="1760" y="190" />
            </Array>
          </mxGeometry>
        </mxCell>
        <mxCell id="jKkmDSno7VyTAPfK5DCA-81" value="" style="endArrow=open;endFill=1;endSize=12;html=1;rounded=0;entryX=0.5;entryY=1;entryDx=0;entryDy=0;" parent="WIyWlLk6GJQsqaUBKTNV-1" target="jKkmDSno7VyTAPfK5DCA-44" edge="1">
          <mxGeometry width="160" relative="1" as="geometry">
            <mxPoint x="88" y="530" as="sourcePoint" />
            <mxPoint x="690" y="316" as="targetPoint" />
            <Array as="points">
              <mxPoint x="88" y="620" />
              <mxPoint x="1225" y="620" />
            </Array>
          </mxGeometry>
        </mxCell>
        <mxCell id="jKkmDSno7VyTAPfK5DCA-82" value="" style="endArrow=open;endFill=1;endSize=12;html=1;rounded=0;exitX=0.39;exitY=0.956;exitDx=0;exitDy=0;exitPerimeter=0;entryX=0.5;entryY=1;entryDx=0;entryDy=0;" parent="WIyWlLk6GJQsqaUBKTNV-1" target="jKkmDSno7VyTAPfK5DCA-47" edge="1">
          <mxGeometry width="160" relative="1" as="geometry">
            <mxPoint x="309.20000000000005" y="530.712" as="sourcePoint" />
            <mxPoint x="1446" y="316" as="targetPoint" />
            <Array as="points">
              <mxPoint x="309" y="610" />
              <mxPoint x="1385" y="610" />
            </Array>
          </mxGeometry>
        </mxCell>
        <mxCell id="jKkmDSno7VyTAPfK5DCA-83" value="" style="endArrow=open;endFill=1;endSize=12;html=1;rounded=0;exitX=0.39;exitY=0.956;exitDx=0;exitDy=0;exitPerimeter=0;entryX=0.5;entryY=1;entryDx=0;entryDy=0;" parent="WIyWlLk6GJQsqaUBKTNV-1" target="jKkmDSno7VyTAPfK5DCA-50" edge="1">
          <mxGeometry width="160" relative="1" as="geometry">
            <mxPoint x="517.2" y="529.712" as="sourcePoint" />
            <mxPoint x="1593" y="316" as="targetPoint" />
            <Array as="points">
              <mxPoint x="517" y="600" />
              <mxPoint x="1545" y="600" />
            </Array>
          </mxGeometry>
        </mxCell>
        <mxCell id="jKkmDSno7VyTAPfK5DCA-84" value="" style="endArrow=open;endFill=1;endSize=12;html=1;rounded=0;exitX=0.39;exitY=0.956;exitDx=0;exitDy=0;exitPerimeter=0;entryX=0.522;entryY=1.071;entryDx=0;entryDy=0;entryPerimeter=0;" parent="WIyWlLk6GJQsqaUBKTNV-1" target="jKkmDSno7VyTAPfK5DCA-61" edge="1">
          <mxGeometry width="160" relative="1" as="geometry">
            <mxPoint x="99.20000000000005" y="530.712" as="sourcePoint" />
            <mxPoint x="1175" y="317" as="targetPoint" />
            <Array as="points">
              <mxPoint x="99" y="680" />
              <mxPoint x="1750" y="680" />
            </Array>
          </mxGeometry>
        </mxCell>
        <mxCell id="jKkmDSno7VyTAPfK5DCA-85" value="" style="endArrow=open;endFill=1;endSize=12;html=1;rounded=0;exitX=0.39;exitY=0.956;exitDx=0;exitDy=0;exitPerimeter=0;" parent="WIyWlLk6GJQsqaUBKTNV-1" edge="1">
          <mxGeometry width="160" relative="1" as="geometry">
            <mxPoint x="319.20000000000005" y="529.712" as="sourcePoint" />
            <mxPoint x="1960" y="320" as="targetPoint" />
            <Array as="points">
              <mxPoint x="320" y="660" />
              <mxPoint x="1960" y="660" />
            </Array>
          </mxGeometry>
        </mxCell>
        <mxCell id="jKkmDSno7VyTAPfK5DCA-86" value="" style="endArrow=open;endFill=1;endSize=12;html=1;rounded=0;exitX=0.39;exitY=0.956;exitDx=0;exitDy=0;exitPerimeter=0;" parent="WIyWlLk6GJQsqaUBKTNV-1" edge="1">
          <mxGeometry width="160" relative="1" as="geometry">
            <mxPoint x="530.2" y="529.712" as="sourcePoint" />
            <mxPoint x="2142" y="320" as="targetPoint" />
            <Array as="points">
              <mxPoint x="531" y="650" />
              <mxPoint x="2142" y="650" />
            </Array>
          </mxGeometry>
        </mxCell>
      </root>
    </mxGraphModel>
  </diagram>
</mxfile>
